# xmcd
#
# Track frame offsets:
# 150
# 17482
# 33874
# 47547
# 66637
# 86005
# 103819
# 121900
# 142269
# 162801
# 183615
# 203528
#
# Disc length: 2917 seconds
#
# Revision: 0
# Processed by: cddbd v1.5.2PL0 Copyright (c) Steve Scherf et al.
# Submitted via: Axialis_AX_CDPlayer 2.6
#
DISCID=a30b630c
DTITLE=Chris Knight - Heart Of Stone
DYEAR=1900
DGENRE=
TTITLE0=Homesick Gypsy
TTITLE1=Hell Ain't Half Full
TTITLE2=Something To Keep Me Going
TTITLE3=Heart Of Stone
TTITLE4=Danville
TTITLE5=Another Dollar
TTITLE6=Almost There
TTITLE7=Crooked Road
TTITLE8=Maria
TTITLE9=Miles To Memphis
TTITLE10=My Old Cars
TTITLE11=Go On Home
EXTD=www.chrisknight.net
EXTT0=
EXTT1=
EXTT2=
EXTT3=
EXTT4=
EXTT5=
EXTT6=
EXTT7=
EXTT8=
EXTT9=
EXTT10=
EXTT11=
PLAYORDER=
